<svg xmlns="http://www.w3.org/2000/svg" viewBox="0 0 1280 800" role="img" aria-labelledby="title desc">
  <title id="title">Lyric the Producer AI toolkit preview</title>
  <desc id="desc">A dark AI workspace with violet generator cards and bright green accents.</desc>
  <defs><linearGradient id="bg" x1="0" y1="0" x2="1" y2="1"><stop stop-color="#11110f"/><stop offset=".65" stop-color="#22123d"/><stop offset="1" stop-color="#11110f"/></linearGradient></defs>
  <rect width="1280" height="800" fill="url(#bg)"/><circle cx="1050" cy="120" r="240" fill="#7c3aed" opacity=".22"/>
  <rect x="54" y="42" width="1172" height="66" rx="8" fill="#171713" stroke="#fff" stroke-opacity=".15"/>
  <text x="88" y="83" fill="#f1efe7" font-family="Arial, sans-serif" font-size="24" font-weight="700">LYRIC / AI PRODUCTION TOOLKIT</text>
  <rect x="54" y="152" width="1172" height="220" rx="12" fill="#171713" stroke="#d8ff3e" stroke-opacity=".5"/>
  <text x="92" y="220" fill="#d8ff3e" font-family="Arial, sans-serif" font-size="16" font-weight="700">CREATE WITH A CLEARER FIRST DRAFT</text>
  <text x="92" y="282" fill="#f1efe7" font-family="Georgia, serif" font-size="48" font-weight="700">Turn a prompt into momentum.</text><rect x="92" y="316" width="190" height="8" fill="#7c3aed"/>
  <g fill="#1e1e1b" stroke="#fff" stroke-opacity=".14"><rect x="54" y="410" width="360" height="300" rx="10"/><rect x="460" y="410" width="360" height="300" rx="10"/><rect x="866" y="410" width="360" height="300" rx="10"/></g>
  <g fill="#d8ff3e" font-family="Arial, sans-serif" font-size="14" font-weight="700"><text x="88" y="462">CONTENT WRITER</text><text x="494" y="462">NAME GENERATOR</text><text x="900" y="462">IDEA WORKBENCH</text></g>
  <g fill="#8b5cf6"><rect x="88" y="500" width="292" height="82" rx="6"/><rect x="494" y="500" width="292" height="82" rx="6"/><rect x="900" y="500" width="292" height="82" rx="6"/></g>
  <g fill="#f1efe7"><rect x="88" y="612" width="124" height="44" rx="22"/><rect x="494" y="612" width="124" height="44" rx="22"/><rect x="900" y="612" width="124" height="44" rx="22"/></g>
</svg>
